<?xml version="1.0" encoding="UTF-8"?><svg id="a" xmlns="http://www.w3.org/2000/svg" viewBox="0 0 356.13 356.13"><defs><style>.b{fill:#fff;}.c{fill:#fdb900;}</style></defs><path class="c" d="M124.16,0h107.8c35.75,0,53.62,0,72.87,6.08,21.01,7.65,37.56,24.2,45.21,45.21,6.08,19.24,6.08,37.12,6.08,72.87v107.8c0,35.75,0,53.62-6.08,72.87-7.65,21.01-24.2,37.56-45.21,45.2-19.25,6.09-37.12,6.09-72.87,6.09H124.16c-35.75,0-53.63,0-72.87-6.09-21.01-7.64-37.56-24.19-45.21-45.2C0,285.59,0,267.72,0,231.96V124.16c0-35.75,0-53.63,6.08-72.87C13.73,30.28,30.28,13.73,51.29,6.08,70.53,0,88.41,0,124.16,0"/><path class="b" d="M208.21,81.26c-27.02,0-21.56,62.67-30.15,62.67s-3.12-62.67-30.15-62.67c-59.06,0-117.15,51.75-88.24,63.69,111.48,46.05,113.39,80.96,113.39,143.77h10c0-62.8,1.9-97.71,113.38-143.77,28.91-11.94-29.18-63.69-88.24-63.69"/></svg>